<svg width="1440" height="668" viewBox="0 0 1440 668" fill="none" xmlns="http://www.w3.org/2000/svg">
<path d="M-3 594L1441 601.779V659.575C1441 659.575 1323.68 631.491 1034.85 659.575C746.022 687.659 579.588 637.846 347.946 622.061C116.304 606.277 -3 641.536 -3 641.536V594Z" fill="#D3DFC7"/>
<path d="M-3 594L1441 601.779V659.575C1441 659.575 1323.68 631.491 1034.85 659.575C746.022 687.659 579.588 637.846 347.946 622.061C116.304 606.277 -3 641.536 -3 641.536V594Z" fill="#D3DFC7"/>
<rect x="1" y="49" width="1440" height="571" fill="#B0C69A"/>
<path d="M1441 636L-5.00004 625.488V547.385C-5.00004 547.385 112.487 585.336 401.714 547.385C690.94 509.434 857.605 576.749 1089.57 598.079C1321.53 619.41 1441 571.763 1441 571.763V636Z" fill="#D3DFC7"/>
<path d="M1 52L1441 62.8275V143.273C1441 143.273 1324 104.184 1035.97 143.273C747.947 182.363 581.974 113.029 350.974 91.0584C119.974 69.0882 1 118.165 1 118.165V52Z" fill="#D3DFC7"/>
<path d="M1441 69L-3.00005 61.7467V7.8557C-3.00005 7.8557 114.325 34.0421 403.151 7.8557C691.978 -18.3307 858.412 28.1168 1090.05 42.8347C1321.7 57.5526 1441 24.6762 1441 24.6762V69Z" fill="#D3DFC7"/>
<path d="M1441 69L-3.00005 61.7467V7.8557C-3.00005 7.8557 114.325 34.0421 403.151 7.8557C691.978 -18.3307 858.412 28.1168 1090.05 42.8347C1321.7 57.5526 1441 24.6762 1441 24.6762V69Z" fill="#D3DFC7"/>
</svg>
